<svg width="24" height="25" viewBox="0 0 24 25" fill="none" xmlns="http://www.w3.org/2000/svg">
<path d="M11.7286 8.77173C12.7542 10.3751 14.1254 11.7374 15.7471 12.7532L8.85746 19.6438C8.4324 20.0689 8.21914 20.2814 7.95804 20.4211C7.6971 20.5607 7.40244 20.6198 6.81351 20.7375L3.73636 21.3528C3.40375 21.4193 3.23722 21.4523 3.14261 21.3577C3.04832 21.2631 3.08109 21.0969 3.1475 20.7649L3.76371 17.6877C3.8816 17.0983 3.94038 16.8033 4.08011 16.5422C4.21985 16.2812 4.43247 16.0688 4.85746 15.6438L11.7286 8.77173ZM16.1123 4.53638C16.6719 4.2591 17.3292 4.25913 17.8887 4.53638C18.1828 4.68211 18.4558 4.95499 19.001 5.50024C19.546 6.04527 19.8192 6.31755 19.9649 6.61157C20.2421 7.17105 20.2421 7.82843 19.9649 8.38794C19.8191 8.68203 19.5463 8.95499 19.001 9.50024L17.2041 11.2961C15.5316 10.3448 14.1464 8.96841 13.1827 7.31763L15.001 5.50024C15.546 4.95521 15.8184 4.68215 16.1123 4.53638Z" fill="black"/>
</svg>
