<svg width="25" height="24" viewBox="0 0 25 24" fill="none" xmlns="http://www.w3.org/2000/svg">
<rect x="0.25" width="24" height="24" rx="12" fill="black"/>
<path d="M11.9453 4.5C11.195 4.50031 10.4522 4.64878 9.75951 4.93691C9.06679 5.22503 8.4378 5.64712 7.90864 6.17896C7.37948 6.7108 6.96056 7.34191 6.67594 8.03607C6.39131 8.73023 6.24658 9.47376 6.25006 10.224C6.25006 14.1792 10.3301 17.8056 11.5853 18.7656C11.6906 18.8526 11.823 18.9002 11.9597 18.9002C12.0963 18.9002 12.2287 18.8526 12.3341 18.7656C13.5917 17.7768 17.6381 14.1792 17.6381 10.224C17.6415 9.47397 17.4969 8.73063 17.2124 8.03662C16.9279 7.34262 16.5092 6.71162 15.9803 6.17981C15.4514 5.648 14.8227 5.22586 14.1303 4.9376C13.4378 4.64933 12.6953 4.50062 11.9453 4.5ZM11.9453 12.5904C11.4706 12.5904 11.0066 12.4496 10.6119 12.1859C10.2172 11.9222 9.9096 11.5474 9.72795 11.1088C9.5463 10.6703 9.49877 10.1877 9.59138 9.72218C9.68398 9.25663 9.91256 8.82899 10.2482 8.49334C10.5839 8.1577 11.0115 7.92912 11.477 7.83652C11.9426 7.74391 12.4252 7.79144 12.8637 7.97309C13.3022 8.15474 13.6771 8.46235 13.9408 8.85703C14.2045 9.25171 14.3453 9.71573 14.3453 10.1904C14.3453 10.8269 14.0924 11.4374 13.6423 11.8875C13.1922 12.3375 12.5818 12.5904 11.9453 12.5904Z" fill="white"/>
</svg>
