<svg width="25" height="24" viewBox="0 0 25 24" fill="none" xmlns="http://www.w3.org/2000/svg">
<rect x="0.75" width="24" height="24" rx="12" fill="black"/>
<path d="M17.9729 13.9801C17.7973 13.8418 16.2469 12.1345 15.3689 11.3387C15.3652 11.335 15.3652 11.335 15.3652 11.3313V7.65504C15.3652 6.74346 14.6217 6 13.7101 6H8.28923C7.44116 6 6.75 6.69489 6.75 7.53923V16.1619C6.75 17.0735 7.49346 17.8169 8.40504 17.8169H9.98163H10.3814C10.4486 17.8169 10.5047 17.7572 10.4972 17.6899L10.4113 16.9577C10.4038 16.8979 10.3552 16.8568 10.2955 16.8568H10.1498H10.0601C9.99658 16.8568 9.94427 16.8045 9.94427 16.741V6.94521C9.94427 6.88169 9.99658 6.82939 10.0601 6.82939H13.7214C14.0912 6.82939 14.3938 7.132 14.3938 7.50187V15.5044V16.2927C14.3938 16.5467 14.2182 16.7634 13.9829 16.8306C13.9791 16.8306 13.9791 16.8306 13.9754 16.8306C13.5757 16.6139 13.1049 15.6874 13.0339 15.5417C13.0265 15.5305 13.0227 15.5156 13.0227 15.5044C12.9966 15.269 12.7313 12.99 11.5171 12.99C11.4835 12.99 11.4499 12.99 11.4163 12.9938C11.4163 12.9938 10.4449 13.076 11.2481 15.8443C11.2481 15.8518 11.2519 15.8555 11.2519 15.863L11.6068 18.9303C11.6068 18.934 11.6068 18.9377 11.6105 18.9452C11.6404 19.061 12.0439 20.6264 13.0862 21.736C13.1049 21.7584 13.1161 21.7846 13.1161 21.8144V22.0797C13.1161 22.0872 13.1124 22.0909 13.1049 22.0909H13.0115C12.7836 22.0909 12.5968 22.2777 12.5968 22.5056V23.5853C12.5968 23.8132 12.7836 24 13.0115 24H17.4088C17.6367 24 17.8235 23.8132 17.8235 23.5853V22.5131C17.8235 22.2852 17.6367 22.0984 17.4088 22.0984C17.4013 22.0984 17.3976 22.0946 17.3976 22.0872C17.5433 20.7347 18.0663 16.1096 18.3465 15.7472C18.354 15.736 18.3615 15.7248 18.3652 15.7098C18.4138 15.5417 18.6566 14.5143 17.9729 13.9801ZM8.47976 16.7484C8.47976 16.8082 8.4312 16.8531 8.37516 16.8531C8.00903 16.8531 7.71015 16.5542 7.71015 16.188V7.4944C7.71015 7.12827 8.00903 6.82939 8.37516 6.82939C8.43493 6.82939 8.47976 6.87796 8.47976 6.934V16.7484Z" fill="white"/>
</svg>
