<svg width="28" height="28" viewBox="0 0 28 28" fill="none" xmlns="http://www.w3.org/2000/svg">
<g clip-path="url(#clip0_761_1854)">
<path d="M9.99935 25.6666C10.6437 25.6666 11.166 25.1443 11.166 24.5C11.166 23.8556 10.6437 23.3333 9.99935 23.3333C9.35502 23.3333 8.83268 23.8556 8.83268 24.5C8.83268 25.1443 9.35502 25.6666 9.99935 25.6666Z" fill="#1E1E1E"/>
<path d="M22.8327 25.6666C23.477 25.6666 23.9994 25.1443 23.9994 24.5C23.9994 23.8556 23.477 23.3333 22.8327 23.3333C22.1884 23.3333 21.666 23.8556 21.666 24.5C21.666 25.1443 22.1884 25.6666 22.8327 25.6666Z" fill="#1E1E1E"/>
<path d="M0.666016 1.16663H5.33268L8.45935 16.7883C8.56603 17.3254 8.85824 17.8079 9.28482 18.1513C9.7114 18.4947 10.2452 18.6771 10.7927 18.6666H22.1327C22.6802 18.6771 23.214 18.4947 23.6405 18.1513C24.0671 17.8079 24.3593 17.3254 24.466 16.7883L26.3327 6.99996H6.49935" fill="#1E1E1E"/>
<path d="M0.666016 1.16663H5.33268L8.45935 16.7883C8.56603 17.3254 8.85824 17.8079 9.28482 18.1513C9.7114 18.4947 10.2452 18.6771 10.7927 18.6666H22.1327C22.6802 18.6771 23.214 18.4947 23.6405 18.1513C24.0671 17.8079 24.3593 17.3254 24.466 16.7883L26.3327 6.99996H6.49935M11.166 24.5C11.166 25.1443 10.6437 25.6666 9.99935 25.6666C9.35502 25.6666 8.83268 25.1443 8.83268 24.5C8.83268 23.8556 9.35502 23.3333 9.99935 23.3333C10.6437 23.3333 11.166 23.8556 11.166 24.5ZM23.9994 24.5C23.9994 25.1443 23.477 25.6666 22.8327 25.6666C22.1884 25.6666 21.666 25.1443 21.666 24.5C21.666 23.8556 22.1884 23.3333 22.8327 23.3333C23.477 23.3333 23.9994 23.8556 23.9994 24.5Z" stroke="#1E1E1E" stroke-width="2.33333" stroke-linecap="round" stroke-linejoin="round"/>
</g>
<defs>
<clipPath id="clip0_761_1854">
<rect width="28" height="28" fill="white"/>
</clipPath>
</defs>
</svg>
