<?xml version="1.0" encoding="utf-8"?>
<!-- Generator: Adobe Illustrator 27.5.0, SVG Export Plug-In . SVG Version: 6.00 Build 0)  -->
<svg version="1.1" id="Layer_1" xmlns="http://www.w3.org/2000/svg" xmlns:xlink="http://www.w3.org/1999/xlink" x="0px" y="0px"
	 viewBox="0 0 491.5 491.5" style="enable-background:new 0 0 491.5 491.5;" xml:space="preserve">
<g id="Layer_x5F_1">
	<g id="_221343064">
		<path id="_221342800" style="fill-rule:evenodd;clip-rule:evenodd;fill:#AEAEAE;" d="M198.6,465.6c-0.8,0-1.6-0.2-2.4-0.6
			c-2.3-1.3-3.1-4.2-1.8-6.5L313.9,247c6.5-11.6,19.1-18.5,33.6-18.5s27.1,6.9,33.6,18.5L465,395.5c1.3,2.3,0.5,5.2-1.8,6.5
			c-2.3,1.3-5.2,0.5-6.5-1.8l-83.9-148.5c-4.8-8.5-14.3-13.6-25.3-13.6s-20.4,5.1-25.3,13.6L202.8,463.2
			C201.9,464.7,200.2,465.6,198.6,465.6L198.6,465.6z"/>
		<path id="_221342680" style="fill-rule:evenodd;clip-rule:evenodd;fill:#AEAEAE;" d="M106.6,381.3c-0.8,0-1.6-0.2-2.4-0.6
			c-2.3-1.3-3.1-4.2-1.8-6.5l56.3-99.6c6.5-11.6,19.1-18.5,33.6-18.5s27.1,6.9,33.6,18.5l40.4,71.4c1.3,2.3,0.5,5.2-1.8,6.5
			s-5.2,0.5-6.5-1.8l-40.3-71.4c-4.8-8.5-14.3-13.6-25.3-13.6s-20.5,5.1-25.3,13.6l-56.3,99.6C109.9,380.4,108.3,381.3,106.6,381.3z
			"/>
		<path id="_221342464" style="fill-rule:evenodd;clip-rule:evenodd;fill:#AEAEAE;" d="M242.7,151.9c-18.6,0-33.7,15.1-33.7,33.7
			s15.1,33.7,33.7,33.7s33.7-15.1,33.7-33.7S261.3,151.9,242.7,151.9L242.7,151.9z M242.7,228.8c-23.9,0-43.3-19.4-43.3-43.3
			s19.4-43.3,43.3-43.3s43.3,19.4,43.3,43.3S266.6,228.8,242.7,228.8z"/>
		<path id="_221342368" style="fill-rule:evenodd;clip-rule:evenodd;fill:#797979;" d="M106.6,389.7H52.5c-14.7,0-26.7-12-26.7-26.7
			V52.6c0-14.7,12-26.7,26.7-26.7H363c14.7,0,26.7,12,26.7,26.7v54.1c0,2.7-2.2,4.8-4.8,4.8s-4.8-2.1-4.8-4.8V52.6
			c0-9.4-7.7-17.1-17.1-17.1H52.5c-9.4,0-17.1,7.7-17.1,17.1V363c0,9.4,7.7,17.1,17.1,17.1h54.1c2.7,0,4.8,2.2,4.8,4.8
			S109.3,389.7,106.6,389.7L106.6,389.7z"/>
		<path id="_221342896" style="fill-rule:evenodd;clip-rule:evenodd;fill:#797979;" d="M128.5,111.5c-9.4,0-17.1,7.7-17.1,17.1V439
			c0,9.4,7.7,17.1,17.1,17.1H439c9.4,0,17.1-7.6,17.1-17.1V128.6c0-9.4-7.7-17.1-17.1-17.1H128.5L128.5,111.5z M439,465.6H128.5
			c-14.7,0-26.7-12-26.7-26.7V128.5c0-14.7,12-26.7,26.7-26.7H439c14.7,0,26.7,12,26.7,26.7V439C465.7,453.7,453.7,465.6,439,465.6
			L439,465.6z"/>
	</g>
</g>
</svg>
