<svg width="56" height="57" viewBox="0 0 56 57" fill="none" xmlns="http://www.w3.org/2000/svg">
<path d="M7 28.5H28V32H7V28.5ZM3.5 19.75H21V23.25H3.5V19.75Z" fill="black"/>
<path d="M52.3591 29.5605L47.1091 17.3105C46.9742 16.9958 46.7499 16.7275 46.464 16.539C46.1781 16.3505 45.8433 16.25 45.5008 16.25H40.2508V12.75C40.2508 12.2859 40.0665 11.8408 39.7383 11.5126C39.4101 11.1844 38.965 11 38.5008 11H10.5008V14.5H36.7508V36.473C35.9539 36.9366 35.2564 37.5532 34.6984 38.2871C34.1404 39.0211 33.7329 39.8581 33.4993 40.75H22.5023C22.0764 39.1003 21.0634 37.6627 19.6533 36.7064C18.2432 35.7502 16.5328 35.3411 14.8426 35.5558C13.1524 35.7705 11.5985 36.5942 10.4723 37.8726C9.34599 39.151 8.72461 40.7962 8.72461 42.5C8.72461 44.2038 9.34599 45.849 10.4723 47.1274C11.5985 48.4058 13.1524 49.2295 14.8426 49.4442C16.5328 49.6589 18.2432 49.2498 19.6533 48.2936C21.0634 47.3373 22.0764 45.8997 22.5023 44.25H33.4993C33.88 45.7519 34.7506 47.084 35.9734 48.0356C37.1962 48.9871 38.7014 49.5037 40.2508 49.5037C41.8002 49.5037 43.3054 48.9871 44.5282 48.0356C45.751 47.084 46.6216 45.7519 47.0023 44.25H50.7508C51.215 44.25 51.6601 44.0656 51.9883 43.7374C52.3165 43.4093 52.5008 42.9641 52.5008 42.5V30.25C52.5008 30.0129 52.4525 29.7784 52.3591 29.5605ZM15.7508 46C15.0586 46 14.3819 45.7947 13.8063 45.4101C13.2308 45.0256 12.7822 44.4789 12.5173 43.8394C12.2523 43.1999 12.183 42.4961 12.3181 41.8172C12.4531 41.1383 12.7865 40.5146 13.276 40.0251C13.7654 39.5356 14.3891 39.2023 15.068 39.0673C15.7469 38.9322 16.4507 39.0015 17.0902 39.2664C17.7298 39.5313 18.2764 39.9799 18.661 40.5555C19.0456 41.1311 19.2508 41.8078 19.2508 42.5C19.2508 43.4283 18.8821 44.3185 18.2257 44.9749C17.5693 45.6313 16.6791 46 15.7508 46ZM40.2508 19.75H44.3458L48.0978 28.5H40.2508V19.75ZM40.2508 46C39.5586 46 38.8819 45.7947 38.3063 45.4101C37.7308 45.0256 37.2822 44.4789 37.0173 43.8394C36.7523 43.1999 36.683 42.4961 36.8181 41.8172C36.9531 41.1383 37.2865 40.5146 37.776 40.0251C38.2654 39.5356 38.8891 39.2023 39.568 39.0673C40.2469 38.9322 40.9507 39.0015 41.5902 39.2664C42.2298 39.5313 42.7764 39.9799 43.161 40.5555C43.5456 41.1311 43.7508 41.8078 43.7508 42.5C43.7508 43.4283 43.3821 44.3185 42.7257 44.9749C42.0693 45.6313 41.1791 46 40.2508 46ZM49.0008 40.75H47.0023C46.6168 39.251 45.7448 37.9223 44.523 36.9722C43.3012 36.0221 41.7986 35.5043 40.2508 35.5V32H49.0008V40.75Z" fill="black"/>
</svg>
