<svg width="21" height="25" viewBox="0 0 21 25" fill="none" xmlns="http://www.w3.org/2000/svg">
<path d="M0.832031 20.9583V18.5416H3.2487V10.0833C3.2487 8.41176 3.75217 6.93156 4.75911 5.64267C5.76606 4.33364 7.07509 3.47774 8.6862 3.07496V2.22913C8.6862 1.72565 8.85738 1.30274 9.19974 0.960375C9.56224 0.597876 9.99523 0.416626 10.4987 0.416626C11.0022 0.416626 11.4251 0.597876 11.7674 0.960375C12.1299 1.30274 12.3112 1.72565 12.3112 2.22913V3.07496C13.9223 3.47774 15.2313 4.33364 16.2383 5.64267C17.2452 6.93156 17.7487 8.41176 17.7487 10.0833V18.5416H20.1654V20.9583H0.832031ZM10.4987 24.5833C9.83411 24.5833 9.26016 24.3517 8.77682 23.8885C8.31363 23.4052 8.08203 22.8312 8.08203 22.1666H12.9154C12.9154 22.8312 12.6737 23.4052 12.1904 23.8885C11.7272 24.3517 11.1633 24.5833 10.4987 24.5833ZM5.66536 18.5416H15.332V10.0833C15.332 8.75412 14.8588 7.61628 13.9122 6.66975C12.9657 5.72322 11.8279 5.24996 10.4987 5.24996C9.16953 5.24996 8.03168 5.72322 7.08516 6.66975C6.13863 7.61628 5.66536 8.75412 5.66536 10.0833V18.5416Z" fill="#1D1B20"/>
</svg>
