<svg width="62" height="63" viewBox="0 0 62 63" fill="none" xmlns="http://www.w3.org/2000/svg">
<path d="M30.9733 13.4166V3.08331L18.0566 16L30.9733 28.9166V18.5833C39.5241 18.5833 46.4733 25.5325 46.4733 34.0833C46.4733 42.6341 39.5241 49.5833 30.9733 49.5833C22.4225 49.5833 15.4733 42.6341 15.4733 34.0833H10.3066C10.3066 45.5016 19.555 54.75 30.9733 54.75C42.3916 54.75 51.64 45.5016 51.64 34.0833C51.64 22.665 42.3916 13.4166 30.9733 13.4166Z" fill="black"/>
<path d="M28.1331 41.8333H25.9373V33.4117L23.3281 34.2125V32.43L27.9006 30.8025H28.1331V41.8333ZM39.1898 37.2867C39.1898 38.1133 39.1123 38.8367 38.9315 39.405C38.7506 39.9733 38.4923 40.49 38.1823 40.8775C37.8723 41.265 37.459 41.5492 37.0198 41.73C36.5806 41.9108 36.064 41.9883 35.4956 41.9883C34.9273 41.9883 34.4365 41.9108 33.9715 41.73C33.5065 41.5492 33.119 41.265 32.7831 40.8775C32.4473 40.49 32.189 39.9992 32.0081 39.405C31.8273 38.8108 31.724 38.1133 31.724 37.2867V35.375C31.724 34.5483 31.8015 33.825 31.9823 33.2567C32.1631 32.6883 32.4215 32.1717 32.7315 31.7842C33.0415 31.3967 33.4548 31.1125 33.894 30.9317C34.3331 30.7508 34.8498 30.6733 35.4181 30.6733C35.9865 30.6733 36.4773 30.7508 36.9423 30.9317C37.4073 31.1125 37.7948 31.3967 38.1306 31.7842C38.4665 32.1717 38.7248 32.6625 38.9056 33.2567C39.0865 33.8508 39.1898 34.5483 39.1898 35.375V37.2867ZM36.994 35.065C36.994 34.5742 36.9681 34.1608 36.8906 33.825C36.8131 33.4892 36.7098 33.2308 36.5806 33.0242C36.4515 32.8175 36.2965 32.6625 36.0898 32.585C35.8831 32.5075 35.6765 32.4558 35.444 32.4558C35.2115 32.4558 34.979 32.5075 34.7981 32.585C34.6173 32.6625 34.4365 32.8175 34.3073 33.0242C34.1781 33.2308 34.0748 33.4892 33.9973 33.825C33.9198 34.1608 33.894 34.5742 33.894 35.065V37.5708C33.894 38.0617 33.9198 38.475 33.9973 38.8108C34.0748 39.1467 34.1781 39.4308 34.3073 39.6375C34.4365 39.8442 34.5915 39.9992 34.7981 40.0767C35.0048 40.1542 35.2115 40.2058 35.444 40.2058C35.6765 40.2058 35.909 40.1542 36.0898 40.0767C36.2706 39.9992 36.4515 39.8442 36.5806 39.6375C36.7098 39.4308 36.8131 39.1467 36.8648 38.8108C36.9165 38.475 36.9681 38.0617 36.9681 37.5708V35.065H36.994Z" fill="black"/>
</svg>
