<svg width="27" height="24" viewBox="0 0 27 24" fill="none" xmlns="http://www.w3.org/2000/svg">
<path d="M24.1094 3.12981C23.4975 2.52578 22.7711 2.04663 21.9715 1.71972C21.1719 1.39281 20.3149 1.22455 19.4495 1.22455C18.584 1.22455 17.727 1.39281 16.9274 1.71972C16.1279 2.04663 15.4014 2.52578 14.7896 3.12981L13.5198 4.38278L12.25 3.12981C11.0141 1.9103 9.33789 1.22518 7.59009 1.22518C5.84229 1.22518 4.16607 1.9103 2.93019 3.12981C1.69431 4.34932 1 6.00333 1 7.72798C1 9.45263 1.69431 11.1066 2.93019 12.3262L13.5198 22.7755L24.1094 12.3262C24.7215 11.7224 25.2071 11.0056 25.5384 10.2166C25.8697 9.42765 26.0402 8.582 26.0402 7.72798C26.0402 6.87397 25.8697 6.02832 25.5384 5.23935C25.2071 4.45038 24.7215 3.73355 24.1094 3.12981Z" fill="black" stroke="#1E1E1E" stroke-linecap="round" stroke-linejoin="round"/>
</svg>
