<svg width="29" height="30" viewBox="0 0 29 30" fill="none" xmlns="http://www.w3.org/2000/svg">
<g clip-path="url(#clip0_761_1852)">
<path d="M25.2143 6.14739C24.6025 5.53526 23.876 5.04967 23.0765 4.71837C22.2769 4.38707 21.4199 4.21655 20.5544 4.21655C19.689 4.21655 18.832 4.38707 18.0324 4.71837C17.2328 5.04967 16.5064 5.53526 15.8945 6.14739L14.6248 7.41718L13.355 6.14739C12.1191 4.9115 10.4429 4.21719 8.69507 4.21719C6.94727 4.21719 5.27105 4.9115 4.03517 6.14739C2.79929 7.38327 2.10498 9.05948 2.10498 10.8073C2.10498 12.5551 2.79929 14.2313 4.03517 15.4672L14.6248 26.0568L25.2143 15.4672C25.8265 14.8553 26.3121 14.1289 26.6434 13.3293C26.9747 12.5298 27.1452 11.6728 27.1452 10.8073C27.1452 9.9418 26.9747 9.0848 26.6434 8.28524C26.3121 7.48568 25.8265 6.75923 25.2143 6.14739Z" stroke="#1E1E1E" stroke-width="2.51562" stroke-linecap="round" stroke-linejoin="round"/>
</g>
<defs>
<clipPath id="clip0_761_1852">
<rect width="28.75" height="28.75" fill="white" transform="translate(0.25 0.625)"/>
</clipPath>
</defs>
</svg>
